<mxfile host="app.diagrams.net" agent="Mozilla/5.0 (Windows NT 10.0; Win64; x64; rv:140.0) Gecko/20100101 Firefox/140.0" version="28.0.5">
  <diagram name="Page-1" id="OcbBpKtOufQN1kxAVuW1">
    <mxGraphModel dx="1874" dy="1190" grid="1" gridSize="10" guides="1" tooltips="1" connect="1" arrows="1" fold="1" page="1" pageScale="1" pageWidth="1400" pageHeight="1200" math="0" shadow="0">
      <root>
        <mxCell id="0" />
        <mxCell id="1" parent="0" />
        <mxCell id="QdtAJcI9wP8UnNUqGFjW-1" value="" style="rounded=0;whiteSpace=wrap;html=1;fillColor=#d5e8d4;strokeColor=#82b366;fontSize=12;" vertex="1" parent="1">
          <mxGeometry x="240" y="190" width="470" height="290" as="geometry" />
        </mxCell>
        <mxCell id="QdtAJcI9wP8UnNUqGFjW-2" value="User Interface" style="rounded=0;whiteSpace=wrap;html=1;fillColor=#fff2cc;strokeColor=#d6b656;" vertex="1" parent="1">
          <mxGeometry x="240" y="120" width="470" height="60" as="geometry" />
        </mxCell>
        <mxCell id="QdtAJcI9wP8UnNUqGFjW-3" value="Agent" style="text;html=1;align=center;verticalAlign=middle;whiteSpace=wrap;rounded=0;fontSize=16;" vertex="1" parent="1">
          <mxGeometry x="420" y="200" width="110" height="30" as="geometry" />
        </mxCell>
        <mxCell id="QdtAJcI9wP8UnNUqGFjW-4" value="Prompt" style="text;html=1;align=center;verticalAlign=middle;whiteSpace=wrap;rounded=0;fontSize=12;fontStyle=1" vertex="1" parent="1">
          <mxGeometry x="360" y="245" width="60" height="30" as="geometry" />
        </mxCell>
        <mxCell id="QdtAJcI9wP8UnNUqGFjW-5" value="LLM" style="text;html=1;align=center;verticalAlign=middle;whiteSpace=wrap;rounded=0;fontSize=12;fontStyle=1" vertex="1" parent="1">
          <mxGeometry x="445" y="245" width="60" height="30" as="geometry" />
        </mxCell>
        <mxCell id="QdtAJcI9wP8UnNUqGFjW-6" value="Workflow" style="text;html=1;align=center;verticalAlign=middle;whiteSpace=wrap;rounded=0;fontSize=12;fontStyle=1" vertex="1" parent="1">
          <mxGeometry x="540" y="245" width="60" height="30" as="geometry" />
        </mxCell>
        <mxCell id="QdtAJcI9wP8UnNUqGFjW-7" value="Database" style="text;html=1;align=center;verticalAlign=middle;whiteSpace=wrap;rounded=0;fontSize=12;fontStyle=1" vertex="1" parent="1">
          <mxGeometry x="360" y="330" width="60" height="30" as="geometry" />
        </mxCell>
        <mxCell id="QdtAJcI9wP8UnNUqGFjW-8" value="Vector Database" style="text;html=1;align=center;verticalAlign=middle;whiteSpace=wrap;rounded=0;fontSize=12;fontStyle=1" vertex="1" parent="1">
          <mxGeometry x="450" y="330" width="60" height="30" as="geometry" />
        </mxCell>
        <mxCell id="QdtAJcI9wP8UnNUqGFjW-9" value="Trigger" style="text;html=1;align=center;verticalAlign=middle;whiteSpace=wrap;rounded=0;fontSize=12;fontStyle=1" vertex="1" parent="1">
          <mxGeometry x="540" y="330" width="60" height="30" as="geometry" />
        </mxCell>
        <mxCell id="QdtAJcI9wP8UnNUqGFjW-11" value="Google Map API" style="rounded=0;whiteSpace=wrap;html=1;fontSize=11;fillColor=#e1d5e7;strokeColor=#9673a6;" vertex="1" parent="1">
          <mxGeometry x="90" y="235" width="120" height="30" as="geometry" />
        </mxCell>
        <mxCell id="QdtAJcI9wP8UnNUqGFjW-12" value="Google Form API" style="rounded=0;whiteSpace=wrap;html=1;fontSize=11;fillColor=#e1d5e7;strokeColor=#9673a6;" vertex="1" parent="1">
          <mxGeometry x="90" y="280" width="120" height="30" as="geometry" />
        </mxCell>
        <mxCell id="QdtAJcI9wP8UnNUqGFjW-15" value="Bing Search API" style="rounded=0;whiteSpace=wrap;html=1;fontSize=11;fillColor=#e1d5e7;strokeColor=#9673a6;" vertex="1" parent="1">
          <mxGeometry x="90" y="330" width="120" height="30" as="geometry" />
        </mxCell>
        <mxCell id="QdtAJcI9wP8UnNUqGFjW-18" value="Map" style="rounded=0;whiteSpace=wrap;html=1;fontSize=10;fillColor=#d5e8d4;strokeColor=#82b366;" vertex="1" parent="1">
          <mxGeometry x="240" y="235" width="80" height="30" as="geometry" />
        </mxCell>
        <mxCell id="QdtAJcI9wP8UnNUqGFjW-19" value="Form" style="rounded=0;whiteSpace=wrap;html=1;fontSize=10;fillColor=#d5e8d4;strokeColor=#82b366;" vertex="1" parent="1">
          <mxGeometry x="240" y="280" width="80" height="30" as="geometry" />
        </mxCell>
        <mxCell id="QdtAJcI9wP8UnNUqGFjW-20" value="Search" style="rounded=0;whiteSpace=wrap;html=1;fontSize=10;fillColor=#d5e8d4;strokeColor=#82b366;" vertex="1" parent="1">
          <mxGeometry x="240" y="330" width="80" height="30" as="geometry" />
        </mxCell>
        <mxCell id="QdtAJcI9wP8UnNUqGFjW-21" value="Coding" style="rounded=0;whiteSpace=wrap;html=1;fontSize=10;fillColor=#d5e8d4;strokeColor=#82b366;" vertex="1" parent="1">
          <mxGeometry x="240" y="380" width="80" height="30" as="geometry" />
        </mxCell>
        <mxCell id="QdtAJcI9wP8UnNUqGFjW-22" value="Coding API" style="rounded=0;whiteSpace=wrap;html=1;fontSize=11;fillColor=#e1d5e7;strokeColor=#9673a6;" vertex="1" parent="1">
          <mxGeometry x="90" y="380" width="120" height="30" as="geometry" />
        </mxCell>
        <mxCell id="QdtAJcI9wP8UnNUqGFjW-24" value="Data Extraction" style="rounded=0;whiteSpace=wrap;html=1;fontSize=10;fillColor=#d5e8d4;strokeColor=#82b366;" vertex="1" parent="1">
          <mxGeometry x="240" y="430" width="80" height="30" as="geometry" />
        </mxCell>
        <mxCell id="QdtAJcI9wP8UnNUqGFjW-25" value="Data API" style="rounded=0;whiteSpace=wrap;html=1;fontSize=11;fillColor=#e1d5e7;strokeColor=#9673a6;" vertex="1" parent="1">
          <mxGeometry x="90" y="430" width="120" height="30" as="geometry" />
        </mxCell>
        <mxCell id="QdtAJcI9wP8UnNUqGFjW-31" value="Image Generation" style="rounded=0;whiteSpace=wrap;html=1;fontSize=10;fillColor=#d5e8d4;strokeColor=#82b366;" vertex="1" parent="1">
          <mxGeometry x="630" y="290" width="80" height="30" as="geometry" />
        </mxCell>
        <mxCell id="QdtAJcI9wP8UnNUqGFjW-32" value="&lt;span data-huuid=&quot;9950819607807505317&quot;&gt;&lt;span&gt;Recognition&amp;nbsp;&lt;/span&gt;&lt;/span&gt;" style="rounded=0;whiteSpace=wrap;html=1;fontSize=10;fillColor=#d5e8d4;strokeColor=#82b366;" vertex="1" parent="1">
          <mxGeometry x="630" y="245" width="80" height="30" as="geometry" />
        </mxCell>
        <mxCell id="QdtAJcI9wP8UnNUqGFjW-33" value="Recognition API" style="rounded=0;whiteSpace=wrap;html=1;fontSize=11;fillColor=#f8cecc;strokeColor=#b85450;" vertex="1" parent="1">
          <mxGeometry x="730" y="245" width="120" height="30" as="geometry" />
        </mxCell>
        <mxCell id="QdtAJcI9wP8UnNUqGFjW-35" value="DALLE Image Generation API" style="rounded=0;whiteSpace=wrap;html=1;fontSize=11;fillColor=#f8cecc;strokeColor=#b85450;" vertex="1" parent="1">
          <mxGeometry x="730" y="290" width="120" height="30" as="geometry" />
        </mxCell>
        <mxCell id="QdtAJcI9wP8UnNUqGFjW-36" value="Audio API" style="rounded=0;whiteSpace=wrap;html=1;fontSize=11;fillColor=#f8cecc;strokeColor=#b85450;" vertex="1" parent="1">
          <mxGeometry x="730" y="380" width="120" height="30" as="geometry" />
        </mxCell>
        <mxCell id="QdtAJcI9wP8UnNUqGFjW-37" value="Video Generation API" style="rounded=0;whiteSpace=wrap;html=1;fontSize=11;fillColor=#f8cecc;strokeColor=#b85450;" vertex="1" parent="1">
          <mxGeometry x="730" y="330" width="120" height="30" as="geometry" />
        </mxCell>
        <mxCell id="QdtAJcI9wP8UnNUqGFjW-38" value="Video Genration" style="rounded=0;whiteSpace=wrap;html=1;fontSize=10;fillColor=#d5e8d4;strokeColor=#82b366;" vertex="1" parent="1">
          <mxGeometry x="630" y="330" width="80" height="30" as="geometry" />
        </mxCell>
        <mxCell id="QdtAJcI9wP8UnNUqGFjW-39" value="Audio Generation" style="rounded=0;whiteSpace=wrap;html=1;fontSize=10;fillColor=#d5e8d4;strokeColor=#82b366;" vertex="1" parent="1">
          <mxGeometry x="630" y="380" width="80" height="30" as="geometry" />
        </mxCell>
        <mxCell id="QdtAJcI9wP8UnNUqGFjW-40" value="3D Generation" style="rounded=0;whiteSpace=wrap;html=1;fontSize=10;fillColor=#d5e8d4;strokeColor=#82b366;" vertex="1" parent="1">
          <mxGeometry x="630" y="430" width="80" height="30" as="geometry" />
        </mxCell>
        <mxCell id="QdtAJcI9wP8UnNUqGFjW-41" value="3D API" style="rounded=0;whiteSpace=wrap;html=1;fontSize=11;fillColor=#f8cecc;strokeColor=#b85450;" vertex="1" parent="1">
          <mxGeometry x="730" y="430" width="120" height="30" as="geometry" />
        </mxCell>
        <mxCell id="QdtAJcI9wP8UnNUqGFjW-42" value="Database" style="rounded=0;whiteSpace=wrap;html=1;fontSize=10;fillColor=#d5e8d4;strokeColor=#82b366;" vertex="1" parent="1">
          <mxGeometry x="350" y="430" width="80" height="30" as="geometry" />
        </mxCell>
        <mxCell id="QdtAJcI9wP8UnNUqGFjW-43" value="Vector Database" style="rounded=0;whiteSpace=wrap;html=1;fontSize=10;fillColor=#d5e8d4;strokeColor=#82b366;" vertex="1" parent="1">
          <mxGeometry x="440" y="430" width="80" height="30" as="geometry" />
        </mxCell>
        <mxCell id="QdtAJcI9wP8UnNUqGFjW-44" value="System Trigger" style="rounded=0;whiteSpace=wrap;html=1;fontSize=10;fillColor=#d5e8d4;strokeColor=#82b366;" vertex="1" parent="1">
          <mxGeometry x="530" y="430" width="80" height="30" as="geometry" />
        </mxCell>
        <mxCell id="QdtAJcI9wP8UnNUqGFjW-52" style="edgeStyle=orthogonalEdgeStyle;rounded=0;orthogonalLoop=1;jettySize=auto;html=1;exitX=0.5;exitY=0;exitDx=0;exitDy=0;entryX=0.5;entryY=1;entryDx=0;entryDy=0;" edge="1" parent="1" source="QdtAJcI9wP8UnNUqGFjW-45" target="QdtAJcI9wP8UnNUqGFjW-43">
          <mxGeometry relative="1" as="geometry">
            <mxPoint x="490" y="520" as="targetPoint" />
          </mxGeometry>
        </mxCell>
        <mxCell id="QdtAJcI9wP8UnNUqGFjW-45" value="Enterprise Vector Database" style="rounded=0;whiteSpace=wrap;html=1;fontSize=11;fillColor=#dae8fc;strokeColor=#6c8ebf;" vertex="1" parent="1">
          <mxGeometry x="420" y="510" width="120" height="30" as="geometry" />
        </mxCell>
        <mxCell id="QdtAJcI9wP8UnNUqGFjW-46" value="Enterprise System API" style="rounded=0;whiteSpace=wrap;html=1;fontSize=11;fillColor=#dae8fc;strokeColor=#6c8ebf;" vertex="1" parent="1">
          <mxGeometry x="560" y="510" width="120" height="30" as="geometry" />
        </mxCell>
        <mxCell id="QdtAJcI9wP8UnNUqGFjW-48" value="Enterprise Database" style="rounded=0;whiteSpace=wrap;html=1;fontSize=11;fillColor=#dae8fc;strokeColor=#6c8ebf;" vertex="1" parent="1">
          <mxGeometry x="270" y="510" width="120" height="30" as="geometry" />
        </mxCell>
        <mxCell id="QdtAJcI9wP8UnNUqGFjW-49" value="" style="endArrow=classic;startArrow=classic;html=1;rounded=0;strokeColor=light-dark(#4D4D4D,#6A6A6A);" edge="1" parent="1">
          <mxGeometry width="50" height="50" relative="1" as="geometry">
            <mxPoint x="340" y="510" as="sourcePoint" />
            <mxPoint x="390" y="460" as="targetPoint" />
          </mxGeometry>
        </mxCell>
        <mxCell id="QdtAJcI9wP8UnNUqGFjW-50" value="" style="endArrow=classic;startArrow=classic;html=1;rounded=0;strokeColor=light-dark(#4D4D4D,#6A6A6A);" edge="1" parent="1">
          <mxGeometry width="50" height="50" relative="1" as="geometry">
            <mxPoint x="600" y="500" as="sourcePoint" />
            <mxPoint x="570" y="460" as="targetPoint" />
          </mxGeometry>
        </mxCell>
      </root>
    </mxGraphModel>
  </diagram>
</mxfile>
